<svg width="45" height="35" viewBox="0 0 45 35" fill="none" xmlns="http://www.w3.org/2000/svg">
<path id="Dribbble" d="M43.4077 13.2022C44.3898 16.0643 44.3898 18.926 43.4076 21.7881C42.4249 24.6505 40.5373 27.151 37.7433 29.2913C34.9495 31.4315 31.6846 32.878 27.9485 33.6305C24.2124 34.3832 20.4766 34.3832 16.7402 33.6307C13.0036 32.8782 9.73869 31.4317 6.94513 29.2917C4.15142 27.1516 2.26374 24.6506 1.28082 21.7884C0.298668 18.9264 0.298667 16.0646 1.28089 13.2024C2.26353 10.3402 4.15156 7.83918 6.94526 5.69908C9.73897 3.55897 13.004 2.11244 16.7402 1.3598C20.476 0.607099 24.2122 0.607533 27.9483 1.35996C31.6844 2.11276 34.9492 3.55929 37.7427 5.69929C40.5366 7.83945 42.425 10.3406 43.4077 13.2022ZM35.4974 27.5712C38.8122 25.0318 40.6102 21.9752 40.891 18.4017L40.2897 18.3251C40.0489 18.2942 39.5279 18.279 38.7258 18.2788C37.924 18.2788 37.105 18.3222 36.2697 18.4092C35.4338 18.4965 34.3783 18.6754 33.1014 18.947C31.8247 19.2184 30.5514 19.574 29.2814 20.0144C30.5784 23.363 31.4875 26.5781 32.0086 29.6602C33.3187 29.0457 34.4815 28.3494 35.4974 27.5712ZM20.1995 31.6417C23.0997 31.8975 25.9068 31.6521 28.6203 30.9044C28.0723 27.9451 27.1764 24.7605 25.9335 21.3507C20.8005 23.6444 16.2157 26.3373 12.179 29.4299C14.6253 30.6482 17.2989 31.3857 20.1995 31.6417ZM5.33077 23.2626C6.24628 24.8652 7.53315 26.3015 9.19083 27.5713C9.37806 27.7148 9.52533 27.817 9.63201 27.8785C14.4711 24.1715 19.5907 21.2018 24.9912 18.9697C24.5903 18.0072 24.2027 17.1675 23.8282 16.4505C23.7474 16.4716 23.6312 16.5147 23.4773 16.5813C23.3232 16.6481 23.2134 16.6968 23.1459 16.7277L22.1436 17.0962C21.4482 17.3421 20.4621 17.6059 19.1861 17.8874C17.9092 18.1685 16.496 18.4222 14.9452 18.6474C13.3943 18.8726 11.6098 18.9648 9.59114 18.9234C7.57276 18.8826 5.63487 18.6626 3.77689 18.2633C3.89712 19.9938 4.41555 21.6605 5.33077 23.2626ZM9.19083 7.41917C6.06284 9.81536 4.27179 12.7235 3.81706 16.1436L3.89719 15.7441C5.39454 16.1744 7.0721 16.405 8.93014 16.4354C10.788 16.4659 12.4292 16.3817 13.8529 16.1822C15.2761 15.9822 16.7397 15.7006 18.2442 15.3375C19.7476 14.9738 20.7501 14.7081 21.2513 14.5385C21.7526 14.3695 22.1506 14.2339 22.4448 14.1317L22.5048 14.1166L22.5452 14.0856C20.4194 10.4508 18.027 7.18381 15.3667 4.28611C13.0137 5.02315 10.9557 6.06754 9.19083 7.41917ZM26.3047 3.57124C23.7847 3.15645 21.2812 3.13343 18.7957 3.502C21.3216 6.27725 23.6015 9.33376 25.6327 12.672C28.7076 10.9521 31.247 8.70932 33.2524 5.94477C31.1402 4.77751 28.8239 3.98618 26.3047 3.57124ZM35.4773 7.71109C35.3702 7.8338 35.2333 7.98519 35.0661 8.16418C34.8989 8.34317 34.695 8.5611 34.4543 8.81713C34.2141 9.07283 33.9361 9.35216 33.6223 9.65407C33.3081 9.9562 32.9672 10.2735 32.5993 10.6066C32.232 10.9394 31.8306 11.2874 31.3966 11.6509C30.9616 12.0147 30.5108 12.3755 30.0428 12.734C29.5754 13.0921 29.0702 13.4583 28.5293 13.832C27.9884 14.206 27.4433 14.551 26.8955 14.8685C26.922 14.9507 26.9823 15.0735 27.076 15.2374C27.1696 15.401 27.2429 15.5243 27.2972 15.6056C27.6043 16.2305 27.9451 16.9423 28.3189 17.7411C29.6158 17.3214 30.9258 16.9781 32.2498 16.7116C33.573 16.4456 34.675 16.2666 35.5575 16.1742C36.4402 16.0822 37.319 16.0285 38.1944 16.0132C39.07 15.9976 39.6576 16.0029 39.9589 16.0282C40.2602 16.0539 40.5507 16.0821 40.8311 16.1127L40.8715 16.1128C40.4436 12.7952 38.6998 9.93291 35.638 7.52672L35.4773 7.71109Z" fill="white"/>
</svg>
