<svg width="71" height="77" viewBox="0 0 71 77" fill="none" xmlns="http://www.w3.org/2000/svg">
<g id="icons8-instagram-24 7" style="mix-blend-mode:plus-darker">
<rect width="71" height="77" rx="30" fill="white"/>
<path id="Vector" d="M61.3853 33.8486V26.4694C61.3853 17.6465 54.7291 10.4277 46.5937 10.4277H24.4062C16.2708 10.4277 9.6145 17.6465 9.6145 26.4694V31.2819" stroke="#0F0101" stroke-width="5" stroke-miterlimit="10" stroke-linecap="round" stroke-linejoin="round"/>
<path id="Vector_2" d="M9.6145 41.0664V50.531C9.6145 59.3539 16.2708 66.5727 24.4062 66.5727H46.5937C54.7291 66.5727 61.3853 59.3539 61.3853 50.531V43.1518" stroke="#0F0101" stroke-width="5" stroke-miterlimit="10" stroke-linecap="round" stroke-linejoin="round"/>
<path id="Vector_3" d="M34.6405 27C27.6885 27 22.0676 33.0958 22.0676 40.6354C22.0676 48.175 27.6885 54.2708 34.6405 54.2708C41.5926 54.2708 47.2135 48.175 47.2135 40.6354C47.2135 33.0958 41.5926 27 34.6405 27Z" stroke="#0F0101" stroke-width="5" stroke-miterlimit="10"/>
<path id="Vector_4" d="M50.2916 19.25C48.6645 19.25 47.3333 20.6937 47.3333 22.4583C47.3333 24.2229 48.6645 25.6667 50.2916 25.6667C51.9187 25.6667 53.2499 24.2229 53.2499 22.4583C53.2499 20.6937 51.9187 19.25 50.2916 19.25Z" fill="#0F0101"/>
</g>
</svg>
