<svg width="100" height="99" viewBox="0 0 100 99" fill="none" xmlns="http://www.w3.org/2000/svg">
<g id="icons8-instagram-24 1" style="mix-blend-mode:plus-darker">
<rect width="100" height="99" fill="white"/>
<path id="Vector" d="M86.4584 43.5188V34.0312C86.4584 22.6875 77.0834 13.4062 65.6251 13.4062H34.3751C22.9167 13.4062 13.5417 22.6875 13.5417 34.0312V40.2188" stroke="#0F0101" stroke-width="5" stroke-miterlimit="10" stroke-linecap="round" stroke-linejoin="round"/>
<path id="Vector_2" d="M13.5417 52.8008V64.9695C13.5417 76.3133 22.9167 85.5945 34.3751 85.5945H65.6251C77.0834 85.5945 86.4584 76.3133 86.4584 64.9695V55.482" stroke="#0F0101" stroke-width="5" stroke-miterlimit="10" stroke-linecap="round" stroke-linejoin="round"/>
<path id="Vector_3" d="M50.0001 31.9688C40.2084 31.9688 32.2917 39.8063 32.2917 49.5C32.2917 59.1937 40.2084 67.0312 50.0001 67.0312C59.7917 67.0312 67.7084 59.1937 67.7084 49.5C67.7084 39.8063 59.7917 31.9688 50.0001 31.9688Z" stroke="#0F0101" stroke-width="5" stroke-miterlimit="10"/>
<path id="Vector_4" d="M70.8334 24.75C68.5417 24.75 66.6667 26.6062 66.6667 28.875C66.6667 31.1438 68.5417 33 70.8334 33C73.1251 33 75.0001 31.1438 75.0001 28.875C75.0001 26.6062 73.1251 24.75 70.8334 24.75Z" fill="#0F0101"/>
</g>
</svg>
