<svg width="42" height="33" viewBox="0 0 42 33" fill="none" xmlns="http://www.w3.org/2000/svg">
<path id="Instagram" fill-rule="evenodd" clip-rule="evenodd" d="M12.9708 0.968382C9.62916 1.08388 6.73282 1.70973 4.39408 3.49374C2.04718 5.28712 1.24034 7.51464 1.08919 10.0478C0.995233 11.629 0.445814 23.5739 2.03901 26.7065C3.1134 28.8198 5.22944 30.4447 8.01345 31.2704C9.31252 31.6575 10.7955 31.9195 12.9708 31.996C31.1598 32.6265 37.9023 32.2832 40.7455 26.7065C41.25 25.7138 41.5973 24.5788 41.6933 22.9165C42.5246 8.94719 41.5585 5.91925 38.3884 3.49374C35.874 1.57237 32.9164 0.264454 12.9708 0.968382ZM13.1382 29.1865C11.1467 29.1178 10.0662 28.8636 9.34522 28.6498C7.53142 28.1098 6.16904 27.0704 5.46844 25.6891C4.25516 23.3088 4.65756 12.0038 4.76582 10.1745C4.87203 8.38271 5.3459 6.74511 6.99629 5.48086C9.03885 3.92003 11.6778 3.15508 29.6462 3.7763C31.9911 3.85745 34.1338 4.21972 35.7882 5.48086C37.8308 7.04167 38.8439 9.07879 38.0187 22.7906C37.9288 24.3124 37.5959 25.1381 37.3161 25.6891C35.4676 29.318 31.2149 29.8218 13.1382 29.1865ZM29.8444 8.1498C29.8444 9.18307 30.9413 10.0233 32.2955 10.0233C33.6497 10.0233 34.7486 9.18307 34.7486 8.1498C34.7486 7.11654 33.6497 6.27709 32.2955 6.27709C30.9413 6.27709 29.8444 7.11654 29.8444 8.1498ZM10.9037 16.4814C10.9037 20.9079 15.5996 24.4967 21.3923 24.4967C27.185 24.4967 31.8808 20.9079 31.8808 16.4814C31.8808 12.0549 27.185 8.46844 21.3923 8.46844C15.5996 8.46844 10.9037 12.0549 10.9037 16.4814ZM14.5844 16.4814C14.5844 13.6095 17.6319 11.2794 21.3923 11.2794C25.1526 11.2794 28.2001 13.6095 28.2001 16.4814C28.2001 19.3549 25.1526 21.6857 21.3923 21.6857C17.6319 21.6857 14.5844 19.3549 14.5844 16.4814Z" fill="white"/>
</svg>
