<svg width="35" height="27" viewBox="0 0 35 27" fill="none" xmlns="http://www.w3.org/2000/svg">
<path id="LinkedIn" fill-rule="evenodd" clip-rule="evenodd" d="M34.346 26.6048H27.5035V17.4332C27.5035 14.9172 26.0546 13.5134 23.4561 13.5134C20.6284 13.5134 18.9503 14.9761 18.9503 17.4332V26.6048H12.1077V9.5694H18.9503V11.4851C18.9503 11.4851 21.0971 8.59939 25.9348 8.59939C30.7742 8.59939 34.346 10.8616 34.346 15.5424V26.6048ZM4.31067 6.84491C2.00303 6.84491 0.133301 5.40091 0.133301 3.62006C0.133301 1.84051 2.00303 0.396484 4.31067 0.396484C6.61661 0.396484 8.48633 1.84051 8.48633 3.62006C8.48804 5.40091 6.61661 6.84491 4.31067 6.84491ZM0.133301 26.6048H8.68648V9.5694H0.133301V26.6048Z" fill="white"/>
</svg>
