<svg width="42" height="27" viewBox="0 0 42 27" fill="none" xmlns="http://www.w3.org/2000/svg">
<path id="Twitter" fill-rule="evenodd" clip-rule="evenodd" d="M13.5222 26.6048C29.0141 26.6048 37.4878 16.5203 37.4878 7.77613C37.4878 7.48907 37.4878 7.20416 37.4632 6.92032C39.1115 5.98493 40.534 4.82355 41.6651 3.49467C40.1297 4.0301 38.4977 4.38123 36.8289 4.53604C38.586 3.70872 39.9018 2.40894 40.532 0.875244C38.8775 1.64612 37.069 2.19018 35.1826 2.48209C31.9927 -0.182134 26.6576 -0.311216 23.2645 2.19495C21.0783 3.8109 20.1484 6.22025 20.8279 8.51837C14.0559 8.25067 7.74587 5.73809 3.46799 1.60468C1.23257 4.62853 2.37594 8.49543 6.077 10.4372C4.73657 10.4065 3.42488 10.123 2.25278 9.61013V9.69411C2.25483 12.8438 5.08143 15.5558 9.01035 16.1799C7.7705 16.446 6.46907 16.4846 5.2087 16.2927C6.31101 18.9892 9.47426 20.836 13.0768 20.8893C10.0942 22.731 6.40954 23.7311 2.61611 23.7278C1.94692 23.7262 1.27773 23.6956 0.610596 23.6327C4.46356 25.5744 8.94466 26.6048 13.5222 26.6" fill="white"/>
</svg>
